<svg width="24" height="24" viewBox="0 0 24 24" fill="none" xmlns="http://www.w3.org/2000/svg">
<mask id="mask0_28_6780" style="mask-type:alpha" maskUnits="userSpaceOnUse" x="0" y="0" width="24" height="24">
<rect width="24" height="24" fill="#D9D9D9"/>
</mask>
<g mask="url(#mask0_28_6780)">
<path d="M22.177 20.0265V13.0645C22.177 9.64299 21.397 7.0293 17.1697 7.0293C15.1315 7.0293 13.7727 8.07477 13.2191 9.07273H13.1688V7.33819H9.16797V20.0265H13.345V13.7298C13.345 12.0666 13.6721 10.4746 15.836 10.4746C17.9749 10.4746 18 12.3517 18 13.8249V20.0027H22.177V20.0265Z" fill="white"/>
<path d="M2.16211 7.0293H7.16558V20.0265H2.16211V7.0293Z" fill="white"/>
<path d="M4.64785 0.03125C3.27551 0.03125 2.16211 1.14388 2.16211 2.51526C2.16211 3.88665 3.27551 5.02515 4.64785 5.02515C6.02018 5.02515 7.13359 3.88665 7.13359 2.51526C7.13359 1.14388 6.02018 0.03125 4.64785 0.03125Z" fill="white"/>
</g>
</svg>
