<svg width="96" height="16" viewBox="0 0 96 16" fill="none" xmlns="http://www.w3.org/2000/svg">
<path d="M8.72727 0L11.0357 5.08754L17.0274 5.52786L12.4623 9.11246L13.857 14.4721L8.72727 11.6L3.59751 14.4721L4.99222 9.11246L0.427143 5.52786L6.41888 5.08754L8.72727 0Z" fill="#FE8B75"/>
<path d="M28.364 0L30.6724 5.08754L36.6641 5.52786L32.0991 9.11246L33.4938 14.4721L28.364 11.6L23.2342 14.4721L24.6289 9.11246L20.0639 5.52786L26.0556 5.08754L28.364 0Z" fill="#FE8B75"/>
<path d="M47.9997 0L50.3081 5.08754L56.2999 5.52786L51.7348 9.11246L53.1295 14.4721L47.9997 11.6L42.87 14.4721L44.2647 9.11246L39.6996 5.52786L45.6913 5.08754L47.9997 0Z" fill="#FE8B75"/>
<path d="M67.6365 0L69.9448 5.08754L75.9366 5.52786L71.3715 9.11246L72.7662 14.4721L67.6365 11.6L62.5067 14.4721L63.9014 9.11246L59.3363 5.52786L65.3281 5.08754L67.6365 0Z" fill="#FE8B75"/>
<path d="M87.2732 0L89.5816 5.08754L95.5733 5.52786L91.0082 9.11246L92.4029 14.4721L87.2732 11.6L82.1434 14.4721L83.5381 9.11246L78.973 5.52786L84.9648 5.08754L87.2732 0Z" fill="#FE8B75"/>
</svg>
